PathFileType	4	(X/Y/Z)	D:\TRACE\v60_Jaco2_6-2-23\JustBodyDRS_Motion1_3-v60.trc
DataRate	CameraRate	NumFrames	NumMarkers	Units	OrigDataRate	OrigDataStartFrame	OrigNumFrames
100.00	100.00	      31	9	mm	100.00	6031	      6892
Frame#	Time	front left toe			Front right toe			aft left toe			aft right toe			Arm			FL body			FR body			AL Body			AR Body			
		X1	Y1	Z1	X2	Y2	Z2	X3	Y3	Z3	X4	Y4	Z4	X5	Y5	Z5	X6	Y6	Z6	X7	Y7	Z7	X8	Y8	Z8	X9	Y9	Z9	

6031	60.300	-135.87700	46.43533	-333.04532	203.48376	0.71925	-374.52905	-126.55540	25.44910	282.66574	315.45645	64.93138	243.58162	-99.87589	1194.97473	-485.23901	-65.08231	562.88116	-478.42081	94.23997	565.26056	-494.37042	27.00472	567.79016	463.03879	185.14883	563.99658	449.37613	
6032	60.310	-134.76141	38.53682	-330.96130	203.17673	0.58672	-374.57837	-126.94102	25.60592	282.73117	316.67258	57.39363	244.66544	-100.97869	1194.02380	-485.15366	-64.24358	562.37714	-477.94449	94.81351	565.08435	-494.11163	29.04853	567.97437	463.52585	186.11617	563.93817	449.19891	
6033	60.320	-133.90369	31.54784	-328.78894	202.75838	0.44400	-374.52176	-127.46478	25.73774	282.81619	317.29147	50.59640	246.39607	-102.15604	1192.85718	-484.64395	-63.57244	561.89014	-477.33737	95.16228	564.90741	-493.94675	30.13571	567.67999	463.89432	187.87723	563.99817	449.19379	
6034	60.330	-133.64302	25.06410	-326.73254	202.00858	0.15014	-374.59384	-128.21422	26.13293	282.95596	317.96466	44.56618	248.18764	-103.12810	1192.01135	-484.68240	-63.52440	561.50415	-477.02808	96.40462	564.83539	-493.57941	31.35630	567.68011	464.49506	189.13913	564.15979	449.35770	
6035	60.340	-133.35323	19.11031	-324.75531	199.76872	-0.68171	-374.96640	-128.68398	26.40823	282.96268	319.38870	38.44638	249.69017	-103.96197	1191.38745	-484.26816	-62.57735	560.78876	-476.14230	96.20354	564.31964	-493.12402	32.88569	567.54999	464.96121	190.36130	564.57208	450.21750	
6036	60.350	-132.36702	11.68047	-322.93909	200.67000	-0.45021	-374.82413	-128.81888	26.41870	282.92947	320.56284	31.93838	251.20412	-104.27646	1190.69043	-483.75363	-62.57093	560.50604	-475.73532	96.93880	563.93652	-492.24210	34.12032	567.48541	465.34113	191.88631	564.86615	450.89828	
6037	60.360	-131.50940	4.98542	-321.34256	199.52739	-0.96740	-374.77881	-129.18416	26.50920	282.96402	321.04456	32.27655	249.14063	-104.49741	1190.15356	-483.09198	-61.44899	559.50330	-474.68240	97.62135	563.73999	-491.89606	35.59180	567.65631	466.53705	192.89281	565.47192	451.27823	
6038	60.370	-134.00458	5.35941	-323.90634	199.30563	-1.13382	-374.66376	-129.72545	26.84929	282.98633	320.38562	30.12977	249.33678	-104.60810	1189.88928	-482.37976	-61.43070	558.94806	-474.56299	97.67451	563.51404	-491.78998	36.47402	568.08350	466.71039	194.69434	566.18927	451.91663	
6039	60.380	-134.20879	2.42703	-322.32297	198.69649	-1.02071	-374.40463	-130.39168	27.37363	283.26224	320.14374	29.87313	249.64377	-105.25450	1189.78516	-481.88879	-60.47187	559.00873	-473.48068	99.40617	563.74274	-490.67578	37.31571	569.24323	467.56335	194.98172	567.41064	452.47348	
6040	60.390	-135.60094	3.85805	-322.85495	198.37471	-0.63259	-374.04208	-130.46536	28.27097	283.62338	319.45422	29.23401	250.76117	-106.17505	1189.80176	-481.53964	-59.03465	560.03064	-472.47891	99.43742	564.52960	-489.75174	38.39203	569.94666	468.38220	196.35742	567.62720	452.53241	
6041	60.400	-134.49164	3.87585	-322.37781	197.76288	2.45837	-374.28625	-129.93599	30.76272	282.82278	319.11621	28.21301	250.58945	-106.51271	1190.28320	-481.43811	-59.41232	562.18060	-472.43698	100.49332	566.40485	-489.52011	40.18217	569.41968	468.40353	197.21239	567.61890	453.05441	
6042	60.410	-134.86661	4.14376	-322.24976	194.47209	6.67851	-371.00867	-126.60736	33.64856	284.81680	318.89465	28.05355	250.02284	-106.06720	1191.70850	-480.33881	-58.83996	563.37323	-472.19348	100.24802	567.77124	-489.15988	40.53159	568.56348	468.53986	197.28378	567.53040	453.75388	
6043	60.420	-136.08813	4.35806	-323.29749	193.68541	13.19357	-367.21893	-122.36791	37.32805	286.90182	318.09082	27.97873	249.84344	-104.62302	1193.68933	-478.91516	-59.17325	564.08954	-472.29639	100.23557	568.25262	-489.21469	40.47559	568.52368	468.62814	197.51566	567.60480	453.84024	
6044	60.430	-136.85571	3.27418	-322.65918	192.32849	23.27118	-365.73901	-117.73553	46.69966	286.94785	316.96655	27.81288	249.66731	-103.13828	1195.65051	-477.24969	-59.49156	564.04541	-472.44705	99.88771	568.21185	-489.30740	40.04752	568.84894	468.72174	197.78279	567.32098	452.91913	
6045	60.440	-137.56276	3.18179	-323.04971	193.21738	34.84137	-365.15570	-114.59180	56.14202	287.46320	316.55481	27.74874	249.65910	-102.04135	1196.62048	-476.10593	-59.00301	563.25323	-471.91562	99.48833	568.05670	-489.32831	40.24126	568.91840	468.78940	199.16992	567.41064	452.84125	
6046	60.450	-138.44374	3.42491	-322.23630	194.12904	47.31503	-365.49536	-116.82466	70.85428	286.50357	316.09601	27.50266	249.70258	-101.94949	1196.61011	-475.92368	-60.02883	563.20056	-471.63712	98.87760	567.91528	-489.25751	43.17296	567.58636	468.47586	199.44293	566.96283	452.82858	
6047	60.460	-139.51904	3.51442	-322.27808	195.52258	60.15074	-366.62741	-116.33014	82.27687	287.32471	315.28876	27.05076	249.37527	-102.49790	1195.63928	-476.19998	-60.69459	563.39624	-471.40887	98.26317	567.59167	-489.09271	43.58998	567.26050	468.67087	199.31044	565.98474	452.81439	
6048	60.470	-140.31291	3.13198	-322.40070	196.58655	72.71767	-367.93228	-117.13350	96.63966	286.87103	314.51651	27.20449	249.41226	-103.71688	1194.08887	-476.57419	-61.35875	563.01685	-471.09366	98.17694	566.88495	-489.37766	43.03062	567.56177	468.88217	199.54507	565.50671	452.91376	
6049	60.480	-141.45795	2.78017	-322.53329	197.50725	84.86356	-368.62817	-116.33643	109.43963	287.66010	313.82620	27.44963	249.70584	-104.57877	1192.65308	-476.92096	-61.41499	562.39435	-470.58975	97.38622	565.97272	-489.22043	41.82801	568.06500	469.48273	199.68047	565.37268	453.01541	
6050	60.490	-142.46115	2.75019	-322.55557	197.80119	96.42919	-369.02173	-115.52595	121.98340	288.78467	312.95627	27.35491	249.52495	-105.05957	1191.94897	-477.42453	-62.26165	561.24567	-470.34024	96.65018	565.09015	-489.13931	42.15231	568.29138	470.36566	199.63948	565.48309	453.10489	
6051	60.500	-143.23265	2.54791	-322.25565	197.81598	106.43098	-368.44327	-113.34376	133.16977	289.55276	311.99628	27.32138	249.55515	-105.35772	1191.58643	-477.40277	-63.08149	560.43781	-470.06104	95.36433	563.97278	-488.66718	41.99434	568.57635	470.39063	199.39650	565.83380	453.14847	
6052	60.510	-144.05695	2.52640	-322.02261	199.42072	116.84629	-368.10385	-112.03765	143.03307	290.19336	311.70563	27.46807	249.73584	-104.84424	1191.20740	-477.99866	-64.28748	559.82184	-469.98294	94.11442	562.79633	-487.85175	41.45923	569.13782	470.02887	198.95535	566.25061	453.17859	
6053	60.520	-144.73389	2.30373	-321.92795	200.61174	123.73532	-367.18381	-110.94851	150.35110	291.51300	310.72101	27.47438	249.54601	-104.76446	1190.73389	-478.73792	-65.94459	559.00061	-469.95764	93.95393	562.08911	-488.38034	40.98240	569.74158	470.16333	198.46944	566.85754	453.82767	
6054	60.530	-145.92523	2.44018	-321.87070	201.51027	127.87215	-366.29150	-110.50114	155.11662	292.47742	309.52127	27.28129	249.51395	-104.55634	1189.73218	-479.71133	-66.98232	558.39276	-469.39944	92.50955	561.39099	-488.34552	40.57077	570.04822	470.41959	198.09102	567.05902	453.96030	
6055	60.540	-146.90213	1.86113	-321.81598	201.67520	129.24367	-365.29758	-110.02995	156.69135	294.11960	308.96469	27.33973	249.60564	-104.62943	1188.89075	-480.36368	-68.03704	557.96954	-469.15005	91.25307	560.21002	-487.81015	40.27184	570.39288	470.64432	197.74217	567.31915	454.28592	
6056	60.550	-147.45036	1.55619	-321.80093	201.91827	127.65161	-364.25439	-110.83660	156.31456	295.72394	308.11996	27.54652	249.59312	-105.22223	1188.19666	-481.00006	-69.06961	557.50684	-468.64737	89.74186	559.75482	-487.57758	40.37458	570.82745	470.88776	197.56708	567.50922	454.40186	
6057	60.560	-148.77296	1.87505	-321.71277	201.60751	123.70466	-363.86707	-110.88999	153.72119	296.91931	306.85300	27.30054	249.42256	-105.75378	1188.18335	-481.22665	-70.14152	557.57452	-468.38947	88.53801	559.46759	-487.52301	40.08860	571.54370	471.56766	197.58224	567.77240	454.56183	
6058	60.570	-149.75188	2.00642	-321.57773	201.15829	118.48043	-363.49811	-110.14676	149.64346	298.33505	306.28607	27.41153	249.39406	-106.25649	1188.26563	-481.54416	-71.77521	557.58661	-468.31183	87.46597	558.93121	-487.28656	39.27057	572.04523	471.50461	195.75485	567.79010	454.09805	
6059	60.580	-150.28369	1.65908	-321.54642	200.77194	112.13422	-363.46820	-109.91444	144.79337	299.62646	305.01501	27.53051	249.40793	-106.52566	1188.40479	-481.65472	-72.36842	557.30237	-467.67310	86.93460	558.64844	-487.36560	38.46834	572.79303	471.48016	195.26294	568.20959	454.30679	
6060	60.590	-151.38560	1.75515	-321.64471	199.26181	104.25345	-363.27869	-109.84248	138.55885	300.52652	304.10837	27.48507	249.38661	-106.40478	1188.40430	-481.83960	-73.97482	557.33087	-467.75388	84.99711	558.09088	-486.94397	37.32881	573.06915	471.78104	195.27913	568.50867	454.39334	
6061	60.600	-152.71796	1.79061	-321.54181	200.69278	97.02713	-362.91898	-109.74788	130.68044	301.38452	303.27240	27.68624	249.34628	-106.28533	1188.41870	-481.90457	-75.26186	557.10974	-467.55545	83.64979	557.88568	-487.10178	36.45794	573.29608	471.89801	193.67781	568.51685	454.48090	
